<?xml version="1.0" encoding="UTF-8"?> <svg xmlns="http://www.w3.org/2000/svg" width="222.87" height="118.85" viewBox="0 0 222.87 118.85"><defs><style>.a{fill:#0d0d25;}.b,.c,.d,.e{fill:none;stroke:#f80;stroke-linecap:round;}.b,.c{stroke-linejoin:round;}.b,.d{stroke-width:2.31px;}.c{stroke-width:2.35px;}.d,.e{stroke-miterlimit:10;fill-rule:evenodd;}.e{stroke-width:1.16px;}</style></defs><path class="a" d="M0,95.17l2.28-.58V70.28L0,69.71v-.58H9.69q6.8,0,10.43,3.5t3.63,9.81q0,6.3-3.63,9.8T9.69,95.74H0Zm9.69-.38a6.22,6.22,0,0,0,5.47-2.87Q17.1,89,17.1,82.44T15.16,73a6.21,6.21,0,0,0-5.47-2.86H8.55v24.7Z"></path><path class="a" d="M26.79,95.17l2.28-.58V77.88l-2.28-.58v-.56h4.94q3.42,0,3.42,3.42V94.59l2.28.58v.57H26.79Zm3-21.47a2.59,2.59,0,0,1-.76-1.91,2.55,2.55,0,0,1,.76-1.89,2.73,2.73,0,0,1,3.8,0,2.55,2.55,0,0,1,.76,1.89,2.69,2.69,0,0,1-4.56,1.91Z"></path><path class="a" d="M39,77.88l-1.9-.58v-.56H41.8a5.41,5.41,0,0,1,3.14.81,6.76,6.76,0,0,1,2,2.41l4.52,8.78,4.22-10.29L52.82,77.3v-.56h7v.56l-3,1.15L49.59,96.12H48.45Z"></path><path class="a" d="M60.61,95.17l2.28-.58V77.88l-2.28-.58v-.56h4.94q3.42,0,3.42,3.42V94.59l2.28.58v.57H60.61Zm3-21.47a2.59,2.59,0,0,1-.76-1.91,2.55,2.55,0,0,1,.76-1.89,2.73,2.73,0,0,1,3.8,0,2.55,2.55,0,0,1,.76,1.89,2.69,2.69,0,0,1-4.56,1.91Z"></path><path class="a" d="M87.78,92.7q-3.42-3.61-3.42-10.26a17.25,17.25,0,0,1,1.5-7.51,10.78,10.78,0,0,1,4.22-4.75,12,12,0,0,1,6.29-1.61,9.46,9.46,0,0,1,6,2.47,6.85,6.85,0,0,1,1.33-1.56c.46-.33.71-.51.76-.53h1v7.22h-1.52a11.16,11.16,0,0,0-1.48-3.31,8.49,8.49,0,0,0-2.26-2.4,5.29,5.29,0,0,0-3.1-.95c-1.75,0-3.2,1-4.35,3S91,77.88,91,82.44s.63,7.94,1.88,9.93a5.82,5.82,0,0,0,5.15,3,6.35,6.35,0,0,0,3.4-1,7.91,7.91,0,0,0,2.62-2.68,6.77,6.77,0,0,0,1-3.54h1a7.59,7.59,0,0,1-1.16,4.05,8.41,8.41,0,0,1-3.15,3,8.87,8.87,0,0,1-4.43,1.12Q91.21,96.3,87.78,92.7Z"></path><path class="a" d="M113.41,95.41a6.9,6.9,0,0,1-2.64-2.33,5.5,5.5,0,0,1-1-3V77.88l-2.28-.58v-.56h4.94q3.42,0,3.42,3.42V90a6.65,6.65,0,0,0,.85,3.66,2.43,2.43,0,0,0,2,1.28,3.22,3.22,0,0,0,2.55-1.52,10.33,10.33,0,0,0,.87-1.52V77.88l-2.28-.58v-.56h10.64v.56l-2.28.58v18h-.38a5.55,5.55,0,0,1-4.22-1.51,4,4,0,0,1-.91-1.53,8.36,8.36,0,0,1-1.25,1.71,5.74,5.74,0,0,1-4.26,1.71A8,8,0,0,1,113.41,95.41Z"></path><path class="a" d="M132.81,95.17l2.28-.58V77.88l-2.28-.58v-.56h4.94q3.42,0,3.42,3.42V94.59l2.28.58v.57H132.81Zm3-21.47a2.59,2.59,0,0,1-.76-1.91,2.55,2.55,0,0,1,.76-1.89,2.73,2.73,0,0,1,3.8,0,2.55,2.55,0,0,1,.76,1.89,2.69,2.69,0,0,1-4.56,1.91Z"></path><path class="a" d="M150.44,95.28A6.35,6.35,0,0,1,149,94.21a5.09,5.09,0,0,1-1.33,1.3,5,5,0,0,1-.76.41h-1V89.46h1.52a10.75,10.75,0,0,0,1.44,3,6,6,0,0,0,5,2.93,3.36,3.36,0,0,0,2.41-.78,3,3,0,0,0,.82-2.26A2.56,2.56,0,0,0,156,90.21a25.62,25.62,0,0,0-3.52-2.11,37.86,37.86,0,0,1-3.32-1.85,7.84,7.84,0,0,1-2.17-2,4.85,4.85,0,0,1-.89-2.91,4.38,4.38,0,0,1,2-3.7q2-1.43,6-1.42a6.9,6.9,0,0,1,3.72,1.06,10.2,10.2,0,0,1,1.45,1A6.08,6.08,0,0,1,160.59,77c.43-.25.68-.39.76-.42h1V83h-1.52a13.64,13.64,0,0,0-1.41-2.92c-1.27-2-2.77-3-4.52-3a2.32,2.32,0,0,0-1.75.76,2.63,2.63,0,0,0-.72,1.9,3,3,0,0,0,1.22,2.41,22.29,22.29,0,0,0,3.68,2.22,35.54,35.54,0,0,1,3.21,1.81,8.11,8.11,0,0,1,2,1.91,4.34,4.34,0,0,1,.86,2.66q0,5.52-8.74,5.51A8.64,8.64,0,0,1,150.44,95.28Z"></path><path class="a" d="M166.25,95.17l2.28-.58V77.88l-2.28-.58v-.56h4.94q3.42,0,3.42,3.42V94.59l2.28.58v.57H166.25Zm3-21.47a2.59,2.59,0,0,1-.76-1.91,2.55,2.55,0,0,1,.76-1.89,2.73,2.73,0,0,1,3.8,0,2.55,2.55,0,0,1,.76,1.89,2.69,2.69,0,0,1-4.56,1.91Z"></path><path class="a" d="M179.17,95.17l2.28-.58V77.88l-2.28-.58v-.56h3.42a4.5,4.5,0,0,1,3.53,1.44,5.07,5.07,0,0,1,.84,1.41,7.12,7.12,0,0,1,1.25-1.71,5.78,5.78,0,0,1,4.26-1.71,8,8,0,0,1,3.82.89,6.85,6.85,0,0,1,2.64,2.34,5.45,5.45,0,0,1,.95,3V94.59l2.28.58v.57h-4.94c-2.28,0-3.42-1.15-3.42-3.42V82.44a6.57,6.57,0,0,0-.86-3.67,2.4,2.4,0,0,0-2-1.27A3.21,3.21,0,0,0,188.37,79a6.37,6.37,0,0,0-.84,1.53v14l2.28.58v.57H179.17Z"></path><path class="a" d="M207.14,93.63a10,10,0,0,1-2.7-7.39,11.45,11.45,0,0,1,1.18-5.36,8.35,8.35,0,0,1,3.28-3.5,9.54,9.54,0,0,1,4.85-1.21,10.8,10.8,0,0,1,4.81,1A7.86,7.86,0,0,1,221.75,80a6.83,6.83,0,0,1,1.12,3.81,6.06,6.06,0,0,1-.19,1.64l-.19.64c-1.09.23-2.27.42-3.53.58a57.06,57.06,0,0,1-8.06.57c0,2.93.4,5,1.22,6.28a3.78,3.78,0,0,0,3.34,1.89,5.74,5.74,0,0,0,4.77-2.57,4.37,4.37,0,0,0,.74-2.37h.95A5.08,5.08,0,0,1,221,93.3a6.53,6.53,0,0,1-2.55,2.19,8.35,8.35,0,0,1-3.76.81Q209.84,96.3,207.14,93.63ZM214.85,86a8.75,8.75,0,0,0,1.37-.18c0-.13.09-.41.19-.84a10,10,0,0,0,.19-2,9.61,9.61,0,0,0-.84-4.61,2.38,2.38,0,0,0-2-1.47q-2.85,0-2.85,9.32A32.06,32.06,0,0,0,214.85,86Z"></path><path class="a" d="M57.17,104.36a.41.41,0,0,1,.42.42v.57a.41.41,0,0,1-.12.3.45.45,0,0,1-.3.13H52v3.64h4.87a.41.41,0,0,1,.3.12.39.39,0,0,1,.13.3v.57a.43.43,0,0,1-.43.42H52V115a.42.42,0,0,1-.12.3.44.44,0,0,1-.3.12h-.65a.44.44,0,0,1-.3-.12.42.42,0,0,1-.12-.3V104.78a.41.41,0,0,1,.42-.42Z"></path><path class="a" d="M62.57,107a4,4,0,0,1,1.51.26,3.49,3.49,0,0,1,1.14.71,3.43,3.43,0,0,1,.74,1.11,4.41,4.41,0,0,1,.34,1.43,3.11,3.11,0,0,1,0,.34v.82a2.58,2.58,0,0,1,0,.32,4.91,4.91,0,0,1-.34,1.43,3.43,3.43,0,0,1-.74,1.11,3.49,3.49,0,0,1-1.14.71,4.51,4.51,0,0,1-3,0,3.49,3.49,0,0,1-1.14-.71,3.43,3.43,0,0,1-.74-1.11,4.35,4.35,0,0,1-.34-1.43c0-.08,0-.19,0-.32v-.82c0-.13,0-.25,0-.34a4.41,4.41,0,0,1,.34-1.43,3.43,3.43,0,0,1,.74-1.11,3.49,3.49,0,0,1,1.14-.71A4,4,0,0,1,62.57,107Zm2.3,4.91a6,6,0,0,0,0-.65,6.45,6.45,0,0,0,0-.67,3.43,3.43,0,0,0-.2-.88,2.13,2.13,0,0,0-1.14-1.19,2.8,2.8,0,0,0-1.92,0,2,2,0,0,0-.69.48,2.15,2.15,0,0,0-.45.71,3.43,3.43,0,0,0-.2.88,6.45,6.45,0,0,0,0,.67,6,6,0,0,0,0,.65,3.43,3.43,0,0,0,.2.88,2.15,2.15,0,0,0,.45.71,1.88,1.88,0,0,0,.69.47,2.65,2.65,0,0,0,1.92,0,2,2,0,0,0,.69-.47,2.15,2.15,0,0,0,.45-.71A3.43,3.43,0,0,0,64.87,112Z"></path><path class="a" d="M71.66,107a4,4,0,0,1,1.51.26,3.49,3.49,0,0,1,1.14.71,3.43,3.43,0,0,1,.74,1.11,4.41,4.41,0,0,1,.34,1.43,3.11,3.11,0,0,1,0,.34v.82a2.58,2.58,0,0,1,0,.32,5.26,5.26,0,0,1-.34,1.43,3.43,3.43,0,0,1-.74,1.11,3.49,3.49,0,0,1-1.14.71,4.51,4.51,0,0,1-3,0,3.49,3.49,0,0,1-1.14-.71,3.62,3.62,0,0,1-.75-1.11,4.61,4.61,0,0,1-.33-1.43c0-.08,0-.19,0-.32s0-.27,0-.41,0-.28,0-.41,0-.25,0-.34a4.68,4.68,0,0,1,.33-1.43A3.62,3.62,0,0,1,69,108a3.49,3.49,0,0,1,1.14-.71A4,4,0,0,1,71.66,107ZM74,112a6,6,0,0,0,0-.65,6.45,6.45,0,0,0,0-.67,3.07,3.07,0,0,0-.21-.88,2,2,0,0,0-.44-.71,2.14,2.14,0,0,0-.69-.48,2.8,2.8,0,0,0-1.92,0A2,2,0,0,0,70,109a2.15,2.15,0,0,0-.45.71,3.43,3.43,0,0,0-.2.88,6.45,6.45,0,0,0,0,.67,6,6,0,0,0,0,.65,3.43,3.43,0,0,0,.2.88,2.15,2.15,0,0,0,.45.71,1.88,1.88,0,0,0,.69.47,2.65,2.65,0,0,0,1.92,0,2,2,0,0,0,1.13-1.18A3.07,3.07,0,0,0,74,112Z"></path><path class="a" d="M80.57,107a3,3,0,0,1,1.56.34,2.79,2.79,0,0,1,.89.73v-3.48a.43.43,0,0,1,.42-.43H84a.44.44,0,0,1,.43.43V115a.39.39,0,0,1-.13.3.41.41,0,0,1-.3.12h-.58a.44.44,0,0,1-.3-.12A.42.42,0,0,1,83,115v-.49a2.85,2.85,0,0,1-.9.75,3.25,3.25,0,0,1-1.55.32,3.45,3.45,0,0,1-1.37-.26,3,3,0,0,1-1.11-.75,3.48,3.48,0,0,1-.76-1.18,4.7,4.7,0,0,1-.33-1.56c0-.15,0-.32,0-.51s0-.35,0-.51a4.7,4.7,0,0,1,.33-1.56,3.53,3.53,0,0,1,.76-1.17,3.14,3.14,0,0,1,1.11-.74A3.45,3.45,0,0,1,80.57,107ZM83,112c0-.16,0-.37,0-.63s0-.46,0-.62a2.5,2.5,0,0,0-.67-1.72,2.22,2.22,0,0,0-1.62-.61,2.11,2.11,0,0,0-1.64.66,2.81,2.81,0,0,0-.66,1.8c0,.29,0,.59,0,.88a2.81,2.81,0,0,0,.66,1.8,2.11,2.11,0,0,0,1.64.66,2.25,2.25,0,0,0,1.61-.6A2.32,2.32,0,0,0,83,112Z"></path><path class="a" d="M98.09,110a.4.4,0,0,1,.16-.25.38.38,0,0,1,.25-.1h.73a.33.33,0,0,1,.26.11.27.27,0,0,1,.08.24,6.6,6.6,0,0,1-.3,1.56,6,6,0,0,1-.86,1.76L100,114.9a.27.27,0,0,1,.1.22.29.29,0,0,1-.08.19.27.27,0,0,1-.2.07H98.69a.41.41,0,0,1-.25,0l-.14-.1-.89-.87a5,5,0,0,1-1.46.86,5.38,5.38,0,0,1-1.91.32,5,5,0,0,1-1.42-.19,3.77,3.77,0,0,1-1.17-.58,2.7,2.7,0,0,1-.78-.93,2.73,2.73,0,0,1-.28-1.27,2.49,2.49,0,0,1,.18-1,3.33,3.33,0,0,1,.48-.81,4.92,4.92,0,0,1,.68-.69,6.74,6.74,0,0,1,.82-.58c-.29-.32-.52-.6-.71-.83a3.64,3.64,0,0,1-.44-.67,2.31,2.31,0,0,1-.22-.62,2.59,2.59,0,0,1-.07-.63,2.13,2.13,0,0,1,.28-1.11,2.63,2.63,0,0,1,.71-.81,3.12,3.12,0,0,1,1-.49,3.42,3.42,0,0,1,1-.17,3.09,3.09,0,0,1,1,.18,3.24,3.24,0,0,1,.93.51,2.57,2.57,0,0,1,.67.82,2.15,2.15,0,0,1,.26,1.07,2.67,2.67,0,0,1-.56,1.67,6.76,6.76,0,0,1-1.52,1.34l2.4,2.38A7.62,7.62,0,0,0,98.09,110Zm-4,4.16a3.88,3.88,0,0,0,1.21-.2,3.3,3.3,0,0,0,1.09-.62l-2.74-2.73L93,111a5.11,5.11,0,0,0-.54.48A2.31,2.31,0,0,0,92,112a1.16,1.16,0,0,0-.15.57,1.23,1.23,0,0,0,.2.7,1.5,1.5,0,0,0,.51.49,2.39,2.39,0,0,0,.7.28A3.33,3.33,0,0,0,94,114.13Zm-1.43-7.33a1.56,1.56,0,0,0,.06.44,1.89,1.89,0,0,0,.21.43,5.94,5.94,0,0,0,.39.48l.57.6a5.84,5.84,0,0,0,.57-.35,3.82,3.82,0,0,0,.53-.43,2.2,2.2,0,0,0,.39-.53,1.4,1.4,0,0,0,.15-.64.94.94,0,0,0-.11-.42,1.24,1.24,0,0,0-.28-.38,1.53,1.53,0,0,0-1-.38,1.64,1.64,0,0,0-1,.34A1,1,0,0,0,92.61,106.8Z"></path><path class="a" d="M106.06,115.38a.44.44,0,0,1-.3-.12.42.42,0,0,1-.12-.3V104.78a.41.41,0,0,1,.42-.42h4.22a3.86,3.86,0,0,1,1.67.31,3.06,3.06,0,0,1,1.06.75,2.73,2.73,0,0,1,.56,1,3.13,3.13,0,0,1,.16.93,2.52,2.52,0,0,1-.15.91,2.8,2.8,0,0,1-.37.67,2.38,2.38,0,0,1-.42.42l-.3.22a3.87,3.87,0,0,1,1.05,1.08,2.76,2.76,0,0,1,.45,1.57,3.11,3.11,0,0,1-.23,1.16,3,3,0,0,1-.65,1,3.16,3.16,0,0,1-1.09.73,4,4,0,0,1-1.51.27Zm1.07-9.6V109h3a2.57,2.57,0,0,0,1.58-.41,1.58,1.58,0,0,0,0-2.36,2.51,2.51,0,0,0-1.58-.41Zm0,4.6V114h3.23a2.91,2.91,0,0,0,.92-.14,1.93,1.93,0,0,0,.67-.4,1.6,1.6,0,0,0,.4-.57,1.67,1.67,0,0,0,.14-.67,1.79,1.79,0,0,0-.13-.68,1.5,1.5,0,0,0-.38-.58,1.93,1.93,0,0,0-.67-.4,2.75,2.75,0,0,0-1-.15Z"></path><path class="a" d="M115.59,110.5a4.08,4.08,0,0,1,.35-1.35,3.85,3.85,0,0,1,.74-1.11,3.34,3.34,0,0,1,1.09-.74,3.83,3.83,0,0,1,1.43-.26,4,4,0,0,1,1.52.27,3.1,3.1,0,0,1,1.14.8,3.4,3.4,0,0,1,.73,1.26,5.29,5.29,0,0,1,.25,1.65v.43a.43.43,0,0,1-.43.42H117v.1a2.19,2.19,0,0,0,.66,1.64,2.16,2.16,0,0,0,1.55.58,2.39,2.39,0,0,0,2-.79.93.93,0,0,1,.22-.17.67.67,0,0,1,.28,0h.48a.43.43,0,0,1,.31.13.29.29,0,0,1,.11.3,1.69,1.69,0,0,1-.27.62,2.5,2.5,0,0,1-.63.63,4.38,4.38,0,0,1-1,.49,4.92,4.92,0,0,1-1.46.19,3.56,3.56,0,0,1-1.42-.27,3.5,3.5,0,0,1-1.09-.76,3.84,3.84,0,0,1-.75-1.13,4.41,4.41,0,0,1-.35-1.43A7,7,0,0,1,115.59,110.5Zm1.4,0h4.43v0a2,2,0,0,0-.61-1.53,2.21,2.21,0,0,0-1.61-.58,2.34,2.34,0,0,0-.85.15,2.1,2.1,0,0,0-.7.43,2.07,2.07,0,0,0-.47.67,2.4,2.4,0,0,0-.19.86Z"></path><path class="a" d="M127.39,115.38a.42.42,0,0,1-.32-.12,1.11,1.11,0,0,1-.17-.27l-3.13-7.31a.36.36,0,0,1,0-.11.4.4,0,0,1,.11-.27.37.37,0,0,1,.27-.11h.58a.49.49,0,0,1,.36.13.7.7,0,0,1,.16.25l2.44,5.72,2.44-5.72a1.17,1.17,0,0,1,.16-.25.42.42,0,0,1,.3-.13h.65a.38.38,0,0,1,.38.38.36.36,0,0,1,0,.11L128.45,115a1.53,1.53,0,0,1-.17.27.39.39,0,0,1-.31.12Z"></path><path class="a" d="M132.57,110.5a4.08,4.08,0,0,1,.35-1.35,3.85,3.85,0,0,1,.74-1.11,3.34,3.34,0,0,1,1.09-.74,3.83,3.83,0,0,1,1.43-.26,4,4,0,0,1,1.52.27,3.1,3.1,0,0,1,1.14.8,3.4,3.4,0,0,1,.73,1.26,5.29,5.29,0,0,1,.25,1.65v.43a.43.43,0,0,1-.43.42H134v.1a2.19,2.19,0,0,0,.65,1.64,2.16,2.16,0,0,0,1.55.58,2.39,2.39,0,0,0,2-.79.93.93,0,0,1,.22-.17.67.67,0,0,1,.28,0h.48a.43.43,0,0,1,.31.13.29.29,0,0,1,.11.3,1.69,1.69,0,0,1-.27.62,2.35,2.35,0,0,1-.63.63,4.38,4.38,0,0,1-1,.49,4.92,4.92,0,0,1-1.46.19,3.56,3.56,0,0,1-1.42-.27,3.5,3.5,0,0,1-1.09-.76,3.84,3.84,0,0,1-.75-1.13,4.41,4.41,0,0,1-.35-1.43A7,7,0,0,1,132.57,110.5Zm1.41,0h4.42v0a2,2,0,0,0-.61-1.53,2.21,2.21,0,0,0-1.61-.58,2.37,2.37,0,0,0-.85.15,2.06,2.06,0,0,0-.69.43,2,2,0,0,0-.48.67,2.4,2.4,0,0,0-.18.86Z"></path><path class="a" d="M145.88,107.19a.42.42,0,0,1,.3.13.38.38,0,0,1,.13.3v.5a.44.44,0,0,1-.43.43H145a1.6,1.6,0,0,0-1.81,1.81V115a.39.39,0,0,1-.13.3.41.41,0,0,1-.3.12h-.58a.41.41,0,0,1-.3-.12.43.43,0,0,1-.13-.3v-7.34a.44.44,0,0,1,.43-.43h.58a.42.42,0,0,1,.3.13.38.38,0,0,1,.13.3v.49a2,2,0,0,1,.75-.7,2.71,2.71,0,0,1,1.15-.22Z"></path><path class="a" d="M147,113.32a2.26,2.26,0,0,1,.25-1.1,2.33,2.33,0,0,1,.7-.8,3.71,3.71,0,0,1,1-.54,7.88,7.88,0,0,1,1.25-.32l2.22-.36V110a1.43,1.43,0,0,0-.53-1.21,2.08,2.08,0,0,0-1.31-.4,1.89,1.89,0,0,0-1.05.25,2.67,2.67,0,0,0-.61.6.56.56,0,0,1-.2.18.8.8,0,0,1-.3,0H148a.45.45,0,0,1-.31-.12.37.37,0,0,1-.12-.3,1.45,1.45,0,0,1,.28-.71,2.41,2.41,0,0,1,.66-.65,3.88,3.88,0,0,1,1-.46,3.66,3.66,0,0,1,1.16-.18,4,4,0,0,1,1.31.2,3,3,0,0,1,1,.6,2.65,2.65,0,0,1,.68,1,3.48,3.48,0,0,1,.24,1.34V115a.42.42,0,0,1-.12.3.44.44,0,0,1-.3.12h-.58a.41.41,0,0,1-.3-.12.39.39,0,0,1-.13-.3v-.65a1.38,1.38,0,0,1-.44.53,3.26,3.26,0,0,1-.69.39,4.11,4.11,0,0,1-.8.23,3.84,3.84,0,0,1-1.91-.09,2.62,2.62,0,0,1-.86-.47,1.89,1.89,0,0,1-.55-.7A2,2,0,0,1,147,113.32Zm2.9.87a2.91,2.91,0,0,0,1-.18,2.35,2.35,0,0,0,.81-.48,1.91,1.91,0,0,0,.52-.73,2.39,2.39,0,0,0,.18-.94v-.4l-1.86.3a4.59,4.59,0,0,0-1.57.51,1,1,0,0,0-.59.89.85.85,0,0,0,.08.35,1,1,0,0,0,.25.33,1.22,1.22,0,0,0,.45.25A2,2,0,0,0,149.87,114.19Z"></path><path class="a" d="M155.76,110.77a4.7,4.7,0,0,1,.33-1.56,3.53,3.53,0,0,1,.76-1.17,3.14,3.14,0,0,1,1.11-.74,3.46,3.46,0,0,1,1.38-.26,3.06,3.06,0,0,1,1.56.34,2.86,2.86,0,0,1,.88.73v-.49a.41.41,0,0,1,.12-.3.45.45,0,0,1,.3-.13h.59a.41.41,0,0,1,.29.13.38.38,0,0,1,.13.3v7.65a3.59,3.59,0,0,1-.93,2.61,3.68,3.68,0,0,1-2.79,1,5,5,0,0,1-1.61-.23,3.44,3.44,0,0,1-1.1-.57,2.37,2.37,0,0,1-.65-.75,1.87,1.87,0,0,1-.23-.78.34.34,0,0,1,.12-.3.46.46,0,0,1,.31-.13h.47a.46.46,0,0,1,.29.09.82.82,0,0,1,.23.33,2,2,0,0,0,.15.26,1.28,1.28,0,0,0,.33.33,2.1,2.1,0,0,0,.6.28,3.11,3.11,0,0,0,.94.12,4.21,4.21,0,0,0,1-.11,2,2,0,0,0,.78-.34,1.48,1.48,0,0,0,.52-.63,2.28,2.28,0,0,0,.18-1v-1a2.85,2.85,0,0,1-.9.75,3.23,3.23,0,0,1-1.54.32,3.46,3.46,0,0,1-1.38-.26,3.14,3.14,0,0,1-1.11-.74,3.53,3.53,0,0,1-.76-1.17,4.7,4.7,0,0,1-.33-1.56c0-.16,0-.33,0-.52S155.75,110.93,155.76,110.77Zm6,0a2.46,2.46,0,0,0-.67-1.72,2.22,2.22,0,0,0-1.62-.61,2.11,2.11,0,0,0-1.64.66,2.86,2.86,0,0,0-.66,1.8c0,.29,0,.59,0,.88a2.86,2.86,0,0,0,.66,1.8,2.11,2.11,0,0,0,1.64.66,2.23,2.23,0,0,0,1.62-.62,2.47,2.47,0,0,0,.67-1.71c0-.16,0-.35,0-.57S161.79,110.88,161.78,110.72Z"></path><path class="a" d="M165.2,110.5a4,4,0,0,1,1.08-2.46,3.38,3.38,0,0,1,1.1-.74,3.78,3.78,0,0,1,1.42-.26,4,4,0,0,1,1.52.27,3.1,3.1,0,0,1,1.14.8,3.4,3.4,0,0,1,.73,1.26,5,5,0,0,1,.25,1.65v.43a.41.41,0,0,1-.42.42H166.6v.1a2.22,2.22,0,0,0,.65,1.64,2.18,2.18,0,0,0,1.55.58,2.39,2.39,0,0,0,2-.79,1.19,1.19,0,0,1,.22-.17.72.72,0,0,1,.29,0h.47a.45.45,0,0,1,.32.13.31.31,0,0,1,.11.3,2.12,2.12,0,0,1-.27.62,2.56,2.56,0,0,1-.64.63,4.38,4.38,0,0,1-1,.49,4.92,4.92,0,0,1-1.46.19,3.51,3.51,0,0,1-1.41-.27,3.43,3.43,0,0,1-1.1-.76,3.84,3.84,0,0,1-.75-1.13,4.41,4.41,0,0,1-.34-1.43A5.86,5.86,0,0,1,165.2,110.5Zm1.4,0H171v0a2,2,0,0,0-.6-1.53,2.25,2.25,0,0,0-1.62-.58,2.37,2.37,0,0,0-.85.15,2.06,2.06,0,0,0-.69.43,1.8,1.8,0,0,0-.47.67,2.21,2.21,0,0,0-.19.86Z"></path><line class="b" x1="39.49" y1="65.22" x2="60.14" y2="65.22"></line><line class="c" x1="70.19" y1="65.22" x2="140.33" y2="65.22"></line><path class="d" d="M89.14,65.22S88,45.81,94.91,39.75A26.72,26.72,0,0,1,110,33.39"></path><path class="d" d="M140.6,65.22s1-20.44-3.55-25.17-8.72-5.48-8.72-5.48"></path><path class="d" d="M139.16,44.4S150.66,43.74,155,34s-7.3-22.77-20.43-16.41"></path><path class="d" d="M91.25,45.78C85.3,44.4,78,30,86.48,17.86c11.83-17,32.24-9.64,35.34-2"></path><path class="d" d="M109.9,10.39s1.76-11,15.53-9c12.88,1.91,10.19,14.49,10.19,14.49"></path><path class="e" d="M94.56,43.66s5.19-4.72,11.67-5.84"></path><path class="e" d="M93.69,47.32s5.19-4.72,11.67-5.83"></path><path class="e" d="M93.22,51.61a28.36,28.36,0,0,1,6.2-4"></path><path class="e" d="M92.85,56.05A27.9,27.9,0,0,1,99,52"></path></svg> 